HIERARCHY
ROOT hip
{
  OFFSET 65.1675 87.4133 -50.687
  CHANNELS 6 Xposition Yposition Zposition Zrotation Xrotation Yrotation
  JOINT abdomen
  {
    OFFSET 0 20.6881 -0.73152
    CHANNELS 3 Zrotation Xrotation Yrotation
    JOINT chest
    {
      OFFSET 0 11.7043 -0.48768
      CHANNELS 3 Zrotation Xrotation Yrotation
      JOINT neck
      {
        OFFSET 0 22.1894 -2.19456
        CHANNELS 3 Zrotation Xrotation Yrotation
        JOINT head
        {
          OFFSET -0.24384 7.07133 1.2192
          CHANNELS 3 Zrotation Xrotation Yrotation
          JOINT leftEye
          {
            OFFSET 4.14528 8.04674 8.04672
            CHANNELS 3 Zrotation Xrotation Yrotation
            End Site
            {
              OFFSET 1 0 0
            }
          }
          JOINT rightEye
          {
            OFFSET -3.6576 8.04674 8.04672
            CHANNELS 3 Zrotation Xrotation Yrotation
            End Site
            {
              OFFSET 1 0 0
            }
          }
        }
      }
      JOINT rCollar
      {
        OFFSET -2.68224 19.2634 -4.8768
        CHANNELS 3 Zrotation Xrotation Yrotation
        JOINT rShldr
        {
          OFFSET -8.77824 -1.95073 1.46304
          CHANNELS 3 Zrotation Xrotation Yrotation
          JOINT rForeArm
          {
            OFFSET -28.1742 -1.7115 0.48768
            CHANNELS 3 Zrotation Xrotation Yrotation
            JOINT rHand
            {
              OFFSET -22.5879 0.773209 7.07136
              CHANNELS 3 Zrotation Xrotation Yrotation
              JOINT rThumb1
              {
                OFFSET -1.2192 -0.487915 3.41376
                CHANNELS 3 Zrotation Xrotation Yrotation
                JOINT rThumb2
                {
                  OFFSET -3.37035 -0.52449 3.41376
                  CHANNELS 3 Zrotation Xrotation Yrotation
                  End Site
                  {
                    OFFSET -1.78271 -1.18214 1.43049
                  }
                }
              }
              JOINT rIndex1
              {
                OFFSET -7.75947 0.938293 5.60832
                CHANNELS 3 Zrotation Xrotation Yrotation
                JOINT rIndex2
                {
                  OFFSET -2.54057 -0.884171 1.56538
                  CHANNELS 3 Zrotation Xrotation Yrotation
                  End Site
                  {
                    OFFSET -1.62519 -0.234802 1.16502
                  }
                }
              }
              JOINT rMid1
              {
                OFFSET -8.24714 1.18213 3.41376
                CHANNELS 3 Zrotation Xrotation Yrotation
                JOINT rMid2
                {
                  OFFSET -3.10165 -0.590103 1.0647
                  CHANNELS 3 Zrotation Xrotation Yrotation
                  End Site
                  {
                    OFFSET -2.48547 -0.328903 0.83742
                  }
                }
              }
              JOINT rRing1
              {
                OFFSET -8.82822 0.546677 1.51678
                CHANNELS 3 Zrotation Xrotation Yrotation
                JOINT rRing2
                {
                  OFFSET -2.60934 -0.819778 -0.0198488
                  CHANNELS 3 Zrotation Xrotation Yrotation
                  End Site
                  {
                    OFFSET -2.33842 -0.294052 0.168128
                  }
                }
              }
              JOINT rPinky1
              {
                OFFSET -8.27202 -0.0477905 -0.4584
                CHANNELS 3 Zrotation Xrotation Yrotation
                JOINT rPinky2
                {
                  OFFSET -1.82734 -0.647385 -0.700984
                  CHANNELS 3 Zrotation Xrotation Yrotation
                  End Site
                  {
                    OFFSET -1.69225 -0.51767 -0.607171
                  }
                }
              }
            }
          }
        }
      }
      JOINT lCollar
      {
        OFFSET 2.68224 19.2634 -4.8768
        CHANNELS 3 Zrotation Xrotation Yrotation
        JOINT lShldr
        {
          OFFSET 8.77824 -1.95073 1.46304
          CHANNELS 3 Zrotation Xrotation Yrotation
          JOINT lForeArm
          {
            OFFSET 28.1742 -1.7115 0.48768
            CHANNELS 3 Zrotation Xrotation Yrotation
            JOINT lHand
            {
              OFFSET 22.5879 0.773209 7.07136
              CHANNELS 3 Zrotation Xrotation Yrotation
              JOINT lThumb1
              {
                OFFSET 1.2192 -0.487915 3.41376
                CHANNELS 3 Zrotation Xrotation Yrotation
                JOINT lThumb2
                {
                  OFFSET 3.37035 -0.52449 3.41376
                  CHANNELS 3 Zrotation Xrotation Yrotation
                  End Site
                  {
                    OFFSET 1.78271 -1.18214 1.43049
                  }
                }
              }
              JOINT lIndex1
              {
                OFFSET 7.75947 0.938293 5.60832
                CHANNELS 3 Zrotation Xrotation Yrotation
                JOINT lIndex2
                {
                  OFFSET 2.54057 -0.884171 1.56538
                  CHANNELS 3 Zrotation Xrotation Yrotation
                  End Site
                  {
                    OFFSET 1.62519 -0.234802 1.16502
                  }
                }
              }
              JOINT lMid1
              {
                OFFSET 8.24714 1.18213 3.41376
                CHANNELS 3 Zrotation Xrotation Yrotation
                JOINT lMid2
                {
                  OFFSET 3.10165 -0.590103 1.0647
                  CHANNELS 3 Zrotation Xrotation Yrotation
                  End Site
                  {
                    OFFSET 2.48547 -0.328903 0.83742
                  }
                }
              }
              JOINT lRing1
              {
                OFFSET 8.82822 0.546677 1.51678
                CHANNELS 3 Zrotation Xrotation Yrotation
                JOINT lRing2
                {
                  OFFSET 2.60934 -0.819778 -0.0198488
                  CHANNELS 3 Zrotation Xrotation Yrotation
                  End Site
                  {
                    OFFSET 2.33842 -0.294052 0.168128
                  }
                }
              }
              JOINT lPinky1
              {
                OFFSET 8.27202 -0.0477905 -0.4584
                CHANNELS 3 Zrotation Xrotation Yrotation
                JOINT lPinky2
                {
                  OFFSET 1.82734 -0.647385 -0.700984
                  CHANNELS 3 Zrotation Xrotation Yrotation
                  End Site
                  {
                    OFFSET 1.69225 -0.51767 -0.607171
                  }
                }
              }
            }
          }
        }
      }
    }
  }
  JOINT rButtock
  {
    OFFSET -8.77824 4.35084 1.2192
    CHANNELS 3 Zrotation Xrotation Yrotation
    JOINT rThigh
    {
      OFFSET 0 -1.70687 -2.19456
      CHANNELS 3 Zrotation Xrotation Yrotation
      JOINT rShin
      {
        OFFSET 0 -36.8199 0.73152
        CHANNELS 3 Zrotation Xrotation Yrotation
        JOINT rFoot
        {
          OFFSET 0.73152 -45.1104 -5.12064
          CHANNELS 3 Zrotation Xrotation Yrotation
          End Site
          {
            OFFSET -1.1221 -3.69964 12.103
          }
        }
      }
    }
  }
  JOINT lButtock
  {
    OFFSET 8.77824 4.35084 1.2192
    CHANNELS 3 Zrotation Xrotation Yrotation
    JOINT lThigh
    {
      OFFSET 0 -1.70687 -2.19456
      CHANNELS 3 Zrotation Xrotation Yrotation
      JOINT lShin
      {
        OFFSET 0 -36.8199 0.73152
        CHANNELS 3 Zrotation Xrotation Yrotation
        JOINT lFoot
        {
          OFFSET -0.73152 -45.1104 -5.12064
          CHANNELS 3 Zrotation Xrotation Yrotation
          End Site
          {
            OFFSET 1.1221 -3.69964 12.103
          }
        }
      }
    }
  }
}
MOTION
Frames:	6
Frame Time:	0.00833333
-76.069 91.1872 -179.72 -10.4687 -1.57678 -71.5577 -0.989977 17.2036 3.88953 -0.0794606 -5.76765 1.10073 7.70037 0.339548 12.0614 -17.0742 8.12965 22.3254 -0 0 0 -0 0 0 6.04446e-014 4.17057e-013 4.03916e-013 -47.5231 -61.0215 -7.67253 -17.2252 -9.87926 32.3007 -0.257484 -14.7157 -2.11228 -3.00053e-010 1.44602e-010 5.33406e-010 -5.23506e-010 2.44225e-010 9.04428e-010 -3.0005e-010 1.44603e-010 5.33396e-010 7.73091 5.47488 0.417314 -3.00054e-010 1.44604e-010 5.33406e-010 2.90554 0.965183 0.102902 -3.00052e-010 1.44604e-010 5.33406e-010 10.2786 0.731801 0.0259123 -3.00059e-010 1.44607e-010 5.33414e-010 2.22167 -0.733487 -0.20892 6.04379e-014 4.17053e-013 4.03704e-013 14.9757 -56.5016 -15.5702 13.3448 -6.40767 -24.3237 0.279832 -14.7136 2.11747 5.4616e-010 -1.75671e-009 2.32132e-010 9.3146e-010 -3.03314e-009 4.09355e-010 5.46149e-010 -1.75671e-009 2.32144e-010 -7.73091 5.47488 -0.417314 5.4616e-010 -1.75671e-009 2.3213e-010 -2.90554 0.965183 -0.102902 5.46153e-010 -1.75671e-009 2.32128e-010 -10.2786 0.731801 -0.0259123 5.46163e-010 -1.75671e-009 2.32121e-010 -2.22167 -0.733487 0.20892 -2.03217e-016 0 -3.88251e-019 -8.74347 -9.68943 -8.12043 -0.354561 40.9452 0.621668 -0.227244 -1.95683 1.72989 2.03217e-016 0 3.88251e-019 2.8762 -9.4722 2.19259 0.697529 52.7064 -1.13655 2.26454 15.795 -11.7161 
-75.9336 90.816 -181.186 -10.719 -1.61657 -71.5109 -0.945543 17.3477 3.96881 -0.132487 -5.9102 1.11465 7.68275 0.356337 12.5082 -17.482 7.77202 23.2106 -0 0 0 -0 0 0 1.0932e-013 4.65556e-013 2.06835e-013 -47.9954 -62.4895 -7.22288 -17.0265 -9.67701 31.8711 -0.404647 -17.7913 -2.58487 -2.20667e-009 -1.16985e-009 2.38332e-010 -3.81798e-009 -2.02735e-009 3.8243e-010 -2.20667e-009 -1.16985e-009 2.38322e-010 7.73091 5.47488 0.417314 -2.20667e-009 -1.16985e-009 2.38332e-010 2.90554 0.965183 0.102902 -2.20667e-009 -1.16985e-009 2.38331e-010 10.2786 0.731801 0.0259123 -2.20668e-009 -1.16985e-009 2.38338e-010 2.22167 -0.733487 -0.20892 1.0935e-013 4.65552e-013 2.06637e-013 17.5827 -58.8578 -16.7231 13.2386 -6.35619 -24.0343 0.272578 -14.6998 2.11296 -6.94582e-010 9.15389e-010 -4.16971e-011 -1.20588e-009 1.59531e-009 -7.95966e-011 -6.9459e-010 9.15387e-010 -4.16844e-011 -7.73091 5.47488 -0.417314 -6.94581e-010 9.15388e-010 -4.17003e-011 -2.90554 0.965183 -0.102902 -6.94589e-010 9.1539e-010 -4.17018e-011 -10.2786 0.731801 -0.0259123 -6.94579e-010 9.15389e-010 -4.17098e-011 -2.22167 -0.733487 0.20892 -2.03217e-016 0 -3.88251e-019 -9.91049 -10.0569 -7.61209 -0.404423 43.0444 0.679629 -0.563383 -2.2041 -0.58803 2.03217e-016 0 3.88251e-019 1.22799 -8.39657 1.96441 0.674029 52.2626 -1.14041 3.25622 18.1651 -14.2098 
-76.069 90.3161 -182.456 -10.7912 -1.63348 -71.1377 -0.949776 17.1767 3.8671 -0.0657731 -5.98519 1.06772 7.77219 0.364103 12.8264 -17.8208 7.46553 23.8188 -0 0 0 -0 0 0 1.15997e-013 3.76855e-013 2.04228e-014 -47.7793 -64.3731 -6.23192 -16.9826 -9.62683 31.7928 -0.548106 -20.4486 -3.00383 -3.2629e-009 -1.80996e-009 3.10522e-010 -5.64274e-009 -3.12976e-009 4.90414e-010 -3.2629e-009 -1.80996e-009 3.10514e-010 7.73091 5.47488 0.417314 -3.2629e-009 -1.80996e-009 3.10522e-010 2.90554 0.965183 0.102902 -3.2629e-009 -1.80996e-009 3.10521e-010 10.2786 0.731801 0.0259123 -3.2629e-009 -1.80996e-009 3.10527e-010 2.22167 -0.733487 -0.20892 1.16028e-013 3.7685e-013 2.02376e-014 20.3028 -60.4402 -17.6378 13.3905 -6.44003 -24.4262 0.30651 -15.7575 2.27027 -1.05803e-009 2.02377e-009 -3.43725e-010 -1.82501e-009 3.51331e-009 -6.07669e-010 -1.05804e-009 2.02377e-009 -3.43714e-010 -7.73091 5.47488 -0.417314 -1.05803e-009 2.02377e-009 -3.43729e-010 -2.90554 0.965183 -0.102902 -1.05804e-009 2.02377e-009 -3.4373e-010 -10.2786 0.731801 -0.0259123 -1.05803e-009 2.02377e-009 -3.43738e-010 -2.22167 -0.733487 0.20892 -2.03217e-016 0 -3.88251e-019 -11.2287 -10.3514 -7.18379 -0.449045 44.7672 0.734731 -0.890361 -2.04429 -2.561 2.03217e-016 0 3.88251e-019 -0.560741 -7.17696 1.08783 0.635366 51.3242 -1.10453 3.25396 17.6842 -14.6349 
-76.0142 89.6437 -183.813 -10.7528 -1.6615 -70.5304 -1.01745 16.8173 3.62086 0.0792874 -6.02481 0.970281 7.91938 0.363811 13.0086 -18.0613 7.22723 24.1413 -0 0 0 -0 0 0 9.77501e-014 1.92078e-013 -1.79204e-013 -46.7828 -66.537 -4.58421 -17.0715 -9.71205 31.9962 -0.687993 -22.8569 -3.39444 -3.9487e-009 -2.13147e-009 5.8164e-010 -6.82716e-009 -3.679e-009 9.38163e-010 -3.94869e-009 -2.13147e-009 5.81635e-010 7.73091 5.47488 0.417314 -3.9487e-009 -2.13147e-009 5.8164e-010 2.90554 0.965183 0.102902 -3.94869e-009 -2.13147e-009 5.8164e-010 10.2786 0.731801 0.0259123 -3.94869e-009 -2.13147e-009 5.81644e-010 2.22167 -0.733487 -0.20892 9.77611e-014 1.92073e-013 -1.79375e-013 23.1287 -61.5538 -18.2713 13.827 -6.73 -25.4422 0.386864 -17.7076 2.56751 -9.70354e-010 2.37403e-009 -6.91712e-010 -1.66239e-009 4.11696e-009 -1.21038e-009 -9.70357e-010 2.37403e-009 -6.91702e-010 -7.73091 5.47488 -0.417314 -9.70352e-010 2.37403e-009 -6.91714e-010 -2.90554 0.965183 -0.102902 -9.70357e-010 2.37403e-009 -6.91717e-010 -10.2786 0.731801 -0.0259123 -9.70347e-010 2.37403e-009 -6.91724e-010 -2.22167 -0.733487 0.20892 -2.03217e-016 0 -3.88251e-019 -12.7375 -10.5815 -6.78582 -0.493645 46.3333 0.792467 -1.22576 -1.70355 -4.58025 2.03217e-016 0 3.88251e-019 -2.4115 -5.79928 -0.314047 0.583448 49.8897 -1.04013 2.55668 15.3502 -13.6689 
-75.9404 88.711 -185.294 -10.6496 -1.6529 -69.7625 -1.1202 16.4481 3.32788 0.291494 -6.09982 0.861414 8.02836 0.354832 13.0879 -18.1323 6.90373 24.2469 -0 0 0 -0 0 0 6.89968e-014 -1.66855e-015 -2.91565e-013 -45.4304 -68.6117 -2.7873 -17.2686 -9.91298 32.4224 -0.82424 -24.9322 -3.74332 -4.09139e-009 -2.15651e-009 9.58003e-010 -7.07646e-009 -3.7179e-009 1.57605e-009 -4.09139e-009 -2.1565e-009 9.57999e-010 7.73091 5.47488 0.417314 -4.09139e-009 -2.1565e-009 9.58002e-010 2.90554 0.965183 0.102902 -4.09138e-009 -2.1565e-009 9.58003e-010 10.2786 0.731801 0.0259123 -4.09139e-009 -2.1565e-009 9.58006e-010 2.22167 -0.733487 -0.20892 6.8979e-014 -1.67379e-015 -2.91723e-013 25.7468 -62.4323 -18.789 14.6002 -7.35876 -27.02 0.491964 -19.6978 2.88116 -4.92232e-010 2.11212e-009 -8.58448e-010 -8.29601e-010 3.6593e-009 -1.49397e-009 -4.92233e-010 2.11213e-009 -8.58441e-010 -7.73091 5.47488 -0.417314 -4.92229e-010 2.11212e-009 -8.58449e-010 -2.90554 0.965183 -0.102902 -4.92233e-010 2.11212e-009 -8.58452e-010 -10.2786 0.731801 -0.0259123 -4.92223e-010 2.11212e-009 -8.5846e-010 -2.22167 -0.733487 0.20892 -2.03217e-016 0 -3.88251e-019 -14.0892 -10.6558 -6.21727 -0.531951 47.5444 0.839489 -1.50912 -1.16179 -6.50279 2.03217e-016 0 3.88251e-019 -3.97592 -4.57144 -2.00452 0.54076 48.564 -0.980701 1.60994 11.8424 -12.0217 
-75.7838 87.6872 -186.881 -10.5301 -1.55363 -68.9078 -1.22425 16.2483 3.08412 0.559346 -6.28101 0.78019 8.00311 0.336513 13.0972 -17.961 6.34195 24.2064 -0 0 0 -0 0 0 4.41535e-014 -1.17281e-013 -2.16178e-013 -44.4793 -70.2525 -1.65111 -17.5477 -10.2085 33.0132 -0.95364 -26.5908 -4.03405 -3.51832e-009 -1.90718e-009 1.34592e-009 -6.09589e-009 -3.28927e-009 2.25445e-009 -3.51832e-009 -1.90717e-009 1.34592e-009 7.73091 5.47488 0.417314 -3.51833e-009 -1.90717e-009 1.34592e-009 2.90554 0.965183 0.102902 -3.51831e-009 -1.90717e-009 1.34592e-009 10.2786 0.731801 0.0259123 -3.51832e-009 -1.90717e-009 1.34593e-009 2.22167 -0.733487 -0.20892 4.41099e-014 -1.17286e-013 -2.16327e-013 27.7872 -63.3036 -19.4115 15.7313 -8.43988 -29.1074 0.566264 -20.878 3.07284 3.15645e-010 1.38397e-009 -6.16725e-010 5.61794e-010 2.39331e-009 -1.06466e-009 3.15644e-010 1.38397e-009 -6.16719e-010 -7.73091 5.47488 -0.417314 3.15647e-010 1.38397e-009 -6.16725e-010 -2.90554 0.965183 -0.102902 3.15644e-010 1.38397e-009 -6.16729e-010 -10.2786 0.731801 -0.0259123 3.15653e-010 1.38397e-009 -6.16735e-010 -2.22167 -0.733487 0.20892 -2.03217e-016 0 -3.88251e-019 -14.9406 -10.4809 -5.27812 -0.555401 48.2023 0.860526 -1.68358 -0.40021 -8.18649 2.03217e-016 0 3.88251e-019 -4.96277 -3.80409 -3.7523 0.522249 47.9518 -0.95308 0.75525 7.87292 -10.3412 
